<?xml version="1.0" encoding="UTF-8" standalone="no"?>
<!DOCTYPE svg PUBLIC "-//W3C//DTD SVG 1.1//EN" "http://www.w3.org/Graphics/SVG/1.1/DTD/svg11.dtd">
<svg height="30px" width="30px" stroke-miterlimit="10" style="fill-rule:nonzero; clip-rule:evenodd; stroke-linecap:round; stroke-linejoin:round;" viewBox="0 0 1024 1024"  xml:space="preserve" xmlns="http://www.w3.org/2000/svg" xmlns:xlink="http://www.w3.org/1999/xlink">
<path fill="#000000" opacity="1" stroke="none" d="M627.967 583.299C519.568 583.299 451.941 518.846 451.941 413.621C451.941 384.324 457.068 355.76 466.346 338.914C471.229 330.125 474.158 321.824 474.158 314.012C474.158 302.049 466.102 293.748 453.406 293.748C446.814 293.748 439.734 295.457 431.434 298.875C344.031 334.52 286.414 420.213 286.414 514.451C286.414 647.996 384.559 746.629 518.104 746.629C610.145 746.629 693.152 692.43 730.994 607.957C735.389 598.191 737.586 589.646 737.586 582.322C737.586 570.848 730.994 563.523 719.764 563.523C711.707 563.523 702.43 566.209 692.176 571.58C678.26 578.904 652.625 583.299 627.967 583.299Z"/>
</svg>
