<?xml version="1.0" encoding="UTF-8" standalone="no"?>
<!DOCTYPE svg PUBLIC "-//W3C//DTD SVG 1.1//EN" "http://www.w3.org/Graphics/SVG/1.1/DTD/svg11.dtd">
<svg height="50px" width="50px" stroke-miterlimit="10" style="fill-rule:nonzero; clip-rule:evenodd; stroke-linecap:round; stroke-linejoin:round;" viewBox="0 0 1024 1024" xml:space="preserve" xmlns="http://www.w3.org/2000/svg" xmlns:xlink="http://www.w3.org/1999/xlink">
<path  fill="#FFFFFF" opacity="1" stroke="none" d="M555.4 235.048C555.4 214.052 537.822 196.23 517.07 196.23C496.318 196.23 478.74 214.052 478.74 235.048L478.74 274.599C478.74 295.351 496.318 312.929 517.07 312.929C537.822 312.929 555.4 295.351 555.4 274.599L555.4 235.048ZM337.871 364.931C352.52 379.824 377.666 380.068 392.07 365.908C406.963 351.015 407.207 325.625 393.047 311.464L364.971 283.144C350.566 268.74 325.176 268.007 311.016 282.412C296.123 297.304 295.635 322.451 310.039 336.855L337.871 364.931ZM641.094 311.464C626.934 325.625 627.178 351.015 642.07 365.908C656.23 380.068 681.621 379.824 696.27 364.931L724.102 336.855C738.262 322.451 738.018 297.304 723.125 282.412C708.965 268.007 683.574 268.74 668.926 283.144L641.094 311.464ZM517.07 349.306C440.41 349.306 377.422 412.295 377.422 488.711C377.422 565.371 440.41 628.359 517.07 628.359C593.73 628.359 656.719 565.371 656.719 488.711C656.719 412.295 593.73 349.306 517.07 349.306ZM771.709 527.041C792.705 527.041 810.527 509.707 810.527 488.711C810.527 467.959 792.705 450.381 771.709 450.381L732.158 450.381C711.406 450.381 693.828 467.959 693.828 488.711C693.828 509.707 711.406 527.041 732.158 527.041L771.709 527.041ZM262.188 450.381C241.436 450.381 223.857 467.959 223.857 488.711C223.857 509.707 241.436 527.041 262.188 527.041L301.982 527.041C322.734 527.041 340.557 509.707 340.557 488.711C340.557 467.959 322.734 450.381 301.982 450.381L262.188 450.381ZM695.537 612.002C681.377 597.597 655.986 598.086 641.094 612.978C626.934 627.138 627.178 652.041 642.07 666.933L670.147 695.009C684.551 709.17 709.697 708.925 724.59 694.033C738.994 679.629 738.75 654.482 723.857 639.834L695.537 612.002ZM310.283 639.834C295.391 654.482 295.147 679.629 309.551 694.033C324.199 708.925 349.59 709.17 363.75 695.009L392.07 666.933C406.963 652.041 407.207 627.138 393.047 612.978C378.154 598.086 352.764 597.597 338.604 612.002L310.283 639.834ZM555.4 703.066C555.4 682.07 537.822 664.492 517.07 664.492C496.318 664.492 478.74 682.07 478.74 703.066L478.74 742.617C478.74 763.369 496.318 781.191 517.07 781.191C537.822 781.191 555.4 763.369 555.4 742.617L555.4 703.066Z"/>
</svg>
